<svg xmlns="http://www.w3.org/2000/svg" width="1920" height="1080"><path d="M1039,559L1041,437L945,485Z" fill="#6bbc2f" stroke="#6bbc2f" stroke-width="1.51"/><path d="M1039,559L1157,592L1041,437Z" fill="#60b32a" stroke="#60b32a" stroke-width="1.51"/><path d="M1041,437L818,365L945,485Z" fill="#79c836" stroke="#79c836" stroke-width="1.51"/><path d="M867,750L1034,735L1039,559Z" fill="#56a925" stroke="#56a925" stroke-width="1.51"/><path d="M1039,559L1034,735L1157,592Z" fill="#54a825" stroke="#54a825" stroke-width="1.51"/><path d="M786,639L1039,559L945,485Z" fill="#6abb2f" stroke="#6abb2f" stroke-width="1.51"/><path d="M818,365L759,440L945,485Z" fill="#81cf3a" stroke="#81cf3a" stroke-width="1.51"/><path d="M732,583L786,639L945,485Z" fill="#72c133" stroke="#72c133" stroke-width="1.51"/><path d="M1157,592L1242,333L1041,437Z" fill="#64b62c" stroke="#64b62c" stroke-width="1.51"/><path d="M1041,437L935,221L818,365Z" fill="#84d23c" stroke="#84d23c" stroke-width="1.51"/><path d="M998,196L935,221L1041,437Z" fill="#86d43d" stroke="#86d43d" stroke-width="1.51"/><path d="M786,639L867,750L1039,559Z" fill="#61b32b" stroke="#61b32b" stroke-width="1.51"/><path d="M759,440L732,583L945,485Z" fill="#7bca37" stroke="#7bca37" stroke-width="1.51"/><path d="M825,944L889,912L867,750Z" fill="#50a626" stroke="#50a626" stroke-width="1.51"/><path d="M1157,592L1302,548L1242,333Z" fill="#57ab26" stroke="#57ab26" stroke-width="1.51"/><path d="M1314,706L1302,548L1157,592Z" fill="#459c1d" stroke="#459c1d" stroke-width="1.51"/><path d="M1161,182L998,196L1041,437Z" fill="#82d03a" stroke="#82d03a" stroke-width="1.51"/><path d="M1034,735L1241,733L1157,592Z" fill="#469d1e" stroke="#469d1e" stroke-width="1.51"/><path d="M1147,843L1241,733L1034,735Z" fill="#3b9518" stroke="#3b9518" stroke-width="1.51"/><path d="M1302,548L1338,412L1242,333Z" fill="#5aad27" stroke="#5aad27" stroke-width="1.51"/><path d="M1242,333L1161,182L1041,437Z" fill="#75c535" stroke="#75c535" stroke-width="1.51"/><path d="M1327,285L1161,182L1242,333Z" fill="#73c334" stroke="#73c334" stroke-width="1.51"/><path d="M889,912L1090,848L1034,735Z" fill="#419a1c" stroke="#419a1c" stroke-width="1.51"/><path d="M1241,733L1314,706L1157,592Z" fill="#3f971a" stroke="#3f971a" stroke-width="1.51"/><path d="M1302,548L1508,407L1338,412Z" fill="#50a623" stroke="#50a623" stroke-width="1.51"/><path d="M1314,827L1314,706L1241,733Z" fill="#2f8b12" stroke="#2f8b12" stroke-width="1.51"/><path d="M1090,848L1147,843L1034,735Z" fill="#3a9418" stroke="#3a9418" stroke-width="1.51"/><path d="M818,365L710,270L759,440Z" fill="#91dd42" stroke="#91dd42" stroke-width="1.51"/><path d="M759,440L535,534L732,583Z" fill="#84d23c" stroke="#84d23c" stroke-width="1.51"/><path d="M935,221L710,270L818,365Z" fill="#95e145" stroke="#95e145" stroke-width="1.51"/><path d="M690,69L710,270L935,221Z" fill="#93de44" stroke="#93de44" stroke-width="1.51"/><path d="M1338,412L1327,285L1242,333Z" fill="#64b72c" stroke="#64b72c" stroke-width="1.51"/><path d="M998,196L1016,71L935,221Z" fill="#7fcb39" stroke="#7fcb39" stroke-width="1.51"/><path d="M1161,182L1016,71L998,196Z" fill="#77c435" stroke="#77c435" stroke-width="1.51"/><path d="M1183,27L1016,71L1161,182Z" fill="#6ab92f" stroke="#6ab92f" stroke-width="1.51"/><path d="M867,750L889,912L1034,735Z" fill="#4aa120" stroke="#4aa120" stroke-width="1.51"/><path d="M1090,848L1159,979L1147,843Z" fill="#38941d" stroke="#38941d" stroke-width="1.51"/><path d="M697,795L867,750L786,639Z" fill="#61b32b" stroke="#61b32b" stroke-width="1.51"/><path d="M732,583L697,795L786,639Z" fill="#6bbd30" stroke="#6bbd30" stroke-width="1.51"/><path d="M535,745L697,795L732,583Z" fill="#6fbf31" stroke="#6fbf31" stroke-width="1.51"/><path d="M1314,706L1472,663L1302,548Z" fill="#389217" stroke="#389217" stroke-width="1.51"/><path d="M1147,843L1314,827L1241,733Z" fill="#2e8a12" stroke="#2e8a12" stroke-width="1.51"/><path d="M1330,955L1314,827L1147,843Z" fill="#2a8916" stroke="#2a8916" stroke-width="1.51"/><path d="M539,376L535,534L759,440Z" fill="#92df43" stroke="#92df43" stroke-width="1.51"/><path d="M1016,71L913,24L935,221Z" fill="#7ac637" stroke="#7ac637" stroke-width="1.51"/><path d="M1084,999L1159,979L1090,848Z" fill="#3d9824" stroke="#3d9824" stroke-width="1.51"/><path d="M697,795L825,944L867,750Z" fill="#54a925" stroke="#54a925" stroke-width="1.51"/><path d="M710,270L539,376L759,440Z" fill="#98e446" stroke="#98e446" stroke-width="1.51"/><path d="M593,212L539,376L710,270Z" fill="#a7f14d" stroke="#a7f14d" stroke-width="1.51"/><path d="M1453,810L1472,663L1314,706Z" fill="#2c8a14" stroke="#2c8a14" stroke-width="1.51"/><path d="M1338,412L1508,407L1327,285Z" fill="#5cb029" stroke="#5cb029" stroke-width="1.51"/><path d="M1372,43L1183,27L1161,182Z" fill="#5faf29" stroke="#5faf29" stroke-width="1.51"/><path d="M1017,-80L896,-38L913,24Z" fill="#6bb62f" stroke="#6bb62f" stroke-width="1.51"/><path d="M1084,999L1090,848L889,912Z" fill="#459d26" stroke="#459d26" stroke-width="1.51"/><path d="M1531,586L1508,407L1302,548Z" fill="#4ba225" stroke="#4ba225" stroke-width="1.51"/><path d="M1327,285L1372,43L1161,182Z" fill="#65b62d" stroke="#65b62d" stroke-width="1.51"/><path d="M690,69L593,212L710,270Z" fill="#9de749" stroke="#9de749" stroke-width="1.51"/><path d="M996,1107L1084,999L889,912Z" fill="#4ca530" stroke="#4ca530" stroke-width="1.51"/><path d="M1472,663L1531,586L1302,548Z" fill="#3f991e" stroke="#3f991e" stroke-width="1.51"/><path d="M913,24L690,69L935,221Z" fill="#84cf3c" stroke="#84cf3c" stroke-width="1.51"/><path d="M697,795L691,1014L825,944Z" fill="#5eb231" stroke="#5eb231" stroke-width="1.51"/><path d="M535,534L535,745L732,583Z" fill="#7ecc39" stroke="#7ecc39" stroke-width="1.51"/><path d="M1314,827L1453,810L1314,706Z" fill="#23830d" stroke="#23830d" stroke-width="1.51"/><path d="M1472,663L1678,738L1531,586Z" fill="#3c9724" stroke="#3c9724" stroke-width="1.51"/><path d="M1330,955L1453,810L1314,827Z" fill="#1e8210" stroke="#1e8210" stroke-width="1.51"/><path d="M913,24L780,-63L690,69Z" fill="#7cc638" stroke="#7cc638" stroke-width="1.51"/><path d="M1017,-80L913,24L1016,71Z" fill="#6cb830" stroke="#6cb830" stroke-width="1.51"/><path d="M1159,979L1330,955L1147,843Z" fill="#32901e" stroke="#32901e" stroke-width="1.51"/><path d="M1136,1121L1330,955L1159,979Z" fill="#389628" stroke="#389628" stroke-width="1.51"/><path d="M1183,27L1017,-80L1016,71Z" fill="#65b12c" stroke="#65b12c" stroke-width="1.51"/><path d="M1542,192L1372,43L1327,285Z" fill="#60b22d" stroke="#60b22d" stroke-width="1.51"/><path d="M1183,27L1190,-136L1017,-80Z" fill="#57a526" stroke="#57a526" stroke-width="1.51"/><path d="M1678,738L1607,512L1531,586Z" fill="#449e2b" stroke="#449e2b" stroke-width="1.51"/><path d="M1531,586L1607,512L1508,407Z" fill="#51a82d" stroke="#51a82d" stroke-width="1.51"/><path d="M1508,407L1542,192L1327,285Z" fill="#68ba33" stroke="#68ba33" stroke-width="1.51"/><path d="M1607,512L1587,333L1508,407Z" fill="#5cb133" stroke="#5cb133" stroke-width="1.51"/><path d="M535,745L535,862L697,795Z" fill="#68ba2e" stroke="#68ba2e" stroke-width="1.51"/><path d="M896,-38L780,-63L913,24Z" fill="#72bd33" stroke="#72bd33" stroke-width="1.51"/><path d="M873,-288L780,-63L896,-38Z" fill="#67b12d" stroke="#67b12d" stroke-width="1.51"/><path d="M825,944L996,1107L889,912Z" fill="#53aa31" stroke="#53aa31" stroke-width="1.51"/><path d="M535,862L691,1014L697,795Z" fill="#65b832" stroke="#65b832" stroke-width="1.51"/><path d="M1084,999L1136,1121L1159,979Z" fill="#419d2d" stroke="#419d2d" stroke-width="1.51"/><path d="M764,1127L996,1107L825,944Z" fill="#5ab23a" stroke="#5ab23a" stroke-width="1.51"/><path d="M1587,333L1542,192L1508,407Z" fill="#69bc38" stroke="#69bc38" stroke-width="1.51"/><path d="M539,376L377,475L535,534Z" fill="#91dc42" stroke="#91dc42" stroke-width="1.51"/><path d="M535,534L378,699L535,745Z" fill="#78c636" stroke="#78c636" stroke-width="1.51"/><path d="M535,745L374,905L535,862Z" fill="#64b62d" stroke="#64b62d" stroke-width="1.51"/><path d="M396,324L377,475L539,376Z" fill="#96e045" stroke="#96e045" stroke-width="1.51"/><path d="M396,324L539,376L593,212Z" fill="#a7f04d" stroke="#a7f04d" stroke-width="1.51"/><path d="M396,324L593,212L378,272Z" fill="#a6ef4d" stroke="#a6ef4d" stroke-width="1.51"/><path d="M996,1107L1136,1121L1084,999Z" fill="#48a333" stroke="#48a333" stroke-width="1.51"/><path d="M579,18L593,212L690,69Z" fill="#96df45" stroke="#96df45" stroke-width="1.51"/><path d="M780,-63L579,18L690,69Z" fill="#86ce3c" stroke="#86ce3c" stroke-width="1.51"/><path d="M1282,-121L1183,27L1372,43Z" fill="#509f22" stroke="#509f22" stroke-width="1.51"/><path d="M1282,-121L1190,-136L1183,27Z" fill="#4e9d21" stroke="#4e9d21" stroke-width="1.51"/><path d="M1017,-80L873,-288L896,-38Z" fill="#60aa29" stroke="#60aa29" stroke-width="1.51"/><path d="M579,18L479,108L593,212Z" fill="#9ee649" stroke="#9ee649" stroke-width="1.51"/><path d="M377,475L378,699L535,534Z" fill="#7fcc39" stroke="#7fcc39" stroke-width="1.51"/><path d="M479,108L378,272L593,212Z" fill="#a3eb4b" stroke="#a3eb4b" stroke-width="1.51"/><path d="M396,324L276,411L377,475Z" fill="#8dd741" stroke="#8dd741" stroke-width="1.51"/><path d="M1542,192L1497,29L1372,43Z" fill="#58aa2c" stroke="#58aa2c" stroke-width="1.51"/><path d="M1598,40L1497,29L1542,192Z" fill="#5bad31" stroke="#5bad31" stroke-width="1.51"/><path d="M1540,-32L1282,-121L1372,43Z" fill="#46971f" stroke="#46971f" stroke-width="1.51"/><path d="M691,1014L764,1127L825,944Z" fill="#62b83b" stroke="#62b83b" stroke-width="1.51"/><path d="M996,1107L1057,1318L1136,1121Z" fill="#4eaa3d" stroke="#4eaa3d" stroke-width="1.51"/><path d="M622,1205L764,1127L691,1014Z" fill="#6bc246" stroke="#6bc246" stroke-width="1.51"/><path d="M531,1007L691,1014L535,862Z" fill="#6dc03c" stroke="#6dc03c" stroke-width="1.51"/><path d="M1167,-171L1080,-183L1190,-136Z" fill="#4a971f" stroke="#4a971f" stroke-width="1.51"/><path d="M1190,-136L1080,-183L1017,-80Z" fill="#529e23" stroke="#529e23" stroke-width="1.51"/><path d="M1282,-121L1167,-171L1190,-136Z" fill="#47951d" stroke="#47951d" stroke-width="1.51"/><path d="M374,905L531,1007L535,862Z" fill="#69bb37" stroke="#69bb37" stroke-width="1.51"/><path d="M1763,382L1664,169L1587,333Z" fill="#6fc342" stroke="#6fc342" stroke-width="1.51"/><path d="M1453,810L1678,738L1472,663Z" fill="#308e1e" stroke="#308e1e" stroke-width="1.51"/><path d="M1710,890L1678,738L1453,810Z" fill="#27891f" stroke="#27891f" stroke-width="1.51"/><path d="M1544,997L1453,810L1330,955Z" fill="#24871d" stroke="#24871d" stroke-width="1.51"/><path d="M1355,1202L1544,997L1330,955Z" fill="#2a8e28" stroke="#2a8e28" stroke-width="1.51"/><path d="M1763,382L1587,333L1607,512Z" fill="#60b63a" stroke="#60b63a" stroke-width="1.51"/><path d="M1587,333L1664,169L1542,192Z" fill="#6ec13e" stroke="#6ec13e" stroke-width="1.51"/><path d="M378,699L374,905L535,745Z" fill="#64b42c" stroke="#64b42c" stroke-width="1.51"/><path d="M239,493L313,716L378,699Z" fill="#6cba30" stroke="#6cba30" stroke-width="1.51"/><path d="M239,493L378,699L377,475Z" fill="#78c436" stroke="#78c436" stroke-width="1.51"/><path d="M764,1127L854,1213L996,1107Z" fill="#5db642" stroke="#5db642" stroke-width="1.51"/><path d="M1136,1121L1355,1202L1330,955Z" fill="#35962d" stroke="#35962d" stroke-width="1.51"/><path d="M758,1309L854,1213L764,1127Z" fill="#68c04b" stroke="#68c04b" stroke-width="1.51"/><path d="M378,272L276,411L396,324Z" fill="#95df44" stroke="#95df44" stroke-width="1.51"/><path d="M277,197L276,411L378,272Z" fill="#97e045" stroke="#97e045" stroke-width="1.51"/><path d="M1664,169L1598,40L1542,192Z" fill="#62b437" stroke="#62b437" stroke-width="1.51"/><path d="M1497,29L1540,-32L1372,43Z" fill="#4fa127" stroke="#4fa127" stroke-width="1.51"/><path d="M1598,40L1540,-32L1497,29Z" fill="#51a32d" stroke="#51a32d" stroke-width="1.51"/><path d="M1282,-121L1333,-280L1167,-171Z" fill="#3c8c18" stroke="#3c8c18" stroke-width="1.51"/><path d="M313,716L374,905L378,699Z" fill="#5faf29" stroke="#5faf29" stroke-width="1.51"/><path d="M1819,557L1763,382L1607,512Z" fill="#59b13a" stroke="#59b13a" stroke-width="1.51"/><path d="M276,411L239,493L377,475Z" fill="#81cc3b" stroke="#81cc3b" stroke-width="1.51"/><path d="M282,966L371,1047L374,905Z" fill="#60b236" stroke="#60b236" stroke-width="1.51"/><path d="M780,-63L546,-128L579,18Z" fill="#82ca3b" stroke="#82ca3b" stroke-width="1.51"/><path d="M579,18L386,-24L479,108Z" fill="#8ed641" stroke="#8ed641" stroke-width="1.51"/><path d="M479,108L277,197L378,272Z" fill="#99e146" stroke="#99e146" stroke-width="1.51"/><path d="M778,-289L546,-128L780,-63Z" fill="#70b932" stroke="#70b932" stroke-width="1.51"/><path d="M1182,1323L1355,1202L1136,1121Z" fill="#40a03a" stroke="#40a03a" stroke-width="1.51"/><path d="M386,-24L277,197L479,108Z" fill="#8dd540" stroke="#8dd540" stroke-width="1.51"/><path d="M84,409L96,485L239,493Z" fill="#74be33" stroke="#74be33" stroke-width="1.51"/><path d="M1333,-280L1080,-183L1167,-171Z" fill="#408e1a" stroke="#408e1a" stroke-width="1.51"/><path d="M1333,-280L873,-288L1080,-183Z" fill="#44901c" stroke="#44901c" stroke-width="1.51"/><path d="M1080,-183L873,-288L1017,-80Z" fill="#55a024" stroke="#55a024" stroke-width="1.51"/><path d="M1544,997L1710,890L1453,810Z" fill="#288b23" stroke="#288b23" stroke-width="1.51"/><path d="M1678,738L1819,557L1607,512Z" fill="#48a332" stroke="#48a332" stroke-width="1.51"/><path d="M1659,1002L1710,890L1544,997Z" fill="#2e912e" stroke="#2e912e" stroke-width="1.51"/><path d="M485,1192L622,1205L531,1007Z" fill="#79cd4e" stroke="#79cd4e" stroke-width="1.51"/><path d="M531,1007L622,1205L691,1014Z" fill="#71c545" stroke="#71c545" stroke-width="1.51"/><path d="M1839,650L1819,557L1678,738Z" fill="#45a134" stroke="#45a134" stroke-width="1.51"/><path d="M546,-128L386,-24L579,18Z" fill="#87ce3d" stroke="#87ce3d" stroke-width="1.51"/><path d="M327,-236L285,-83L386,-24Z" fill="#70b732" stroke="#70b732" stroke-width="1.51"/><path d="M873,-288L778,-289L780,-63Z" fill="#61aa2a" stroke="#61aa2a" stroke-width="1.51"/><path d="M1613,1119L1659,1002L1544,997Z" fill="#319533" stroke="#319533" stroke-width="1.51"/><path d="M872,1333L1057,1318L854,1213Z" fill="#60ba4c" stroke="#60ba4c" stroke-width="1.51"/><path d="M854,1213L1057,1318L996,1107Z" fill="#58b344" stroke="#58b344" stroke-width="1.51"/><path d="M1844,279L1664,169L1763,382Z" fill="#74c948" stroke="#74c948" stroke-width="1.51"/><path d="M1844,279L1753,130L1664,169Z" fill="#6fc246" stroke="#6fc246" stroke-width="1.51"/><path d="M1664,169L1753,130L1598,40Z" fill="#62b53b" stroke="#62b53b" stroke-width="1.51"/><path d="M1650,-139L1587,-173L1540,-32Z" fill="#449629" stroke="#449629" stroke-width="1.51"/><path d="M1442,-277L1282,-121L1540,-32Z" fill="#3a8c1b" stroke="#3a8c1b" stroke-width="1.51"/><path d="M1442,-277L1333,-280L1282,-121Z" fill="#2f8112" stroke="#2f8112" stroke-width="1.51"/><path d="M1940,321L1844,279L1763,382Z" fill="#72c74b" stroke="#72c74b" stroke-width="1.51"/><path d="M1861,807L1839,650L1678,738Z" fill="#3a9930" stroke="#3a9930" stroke-width="1.51"/><path d="M1861,807L1678,738L1710,890Z" fill="#2c8f28" stroke="#2c8f28" stroke-width="1.51"/><path d="M1547,1195L1613,1119L1544,997Z" fill="#339736" stroke="#339736" stroke-width="1.51"/><path d="M1057,1318L1182,1323L1136,1121Z" fill="#4caa41" stroke="#4caa41" stroke-width="1.51"/><path d="M374,905L371,1047L531,1007Z" fill="#67ba3a" stroke="#67ba3a" stroke-width="1.51"/><path d="M282,966L374,905L214,906Z" fill="#59ab2f" stroke="#59ab2f" stroke-width="1.51"/><path d="M758,1309L872,1333L854,1213Z" fill="#68c250" stroke="#68c250" stroke-width="1.51"/><path d="M1057,1318L1382,1368L1182,1323Z" fill="#48a945" stroke="#48a945" stroke-width="1.51"/><path d="M622,1205L758,1309L764,1127Z" fill="#6ec64f" stroke="#6ec64f" stroke-width="1.51"/><path d="M628,1322L758,1309L622,1205Z" fill="#76ce57" stroke="#76ce57" stroke-width="1.51"/><path d="M1940,321L1763,382L1819,557Z" fill="#65bd45" stroke="#65bd45" stroke-width="1.51"/><path d="M1866,1036L1861,807L1710,890Z" fill="#329634" stroke="#329634" stroke-width="1.51"/><path d="M1547,1195L1544,997L1355,1202Z" fill="#319534" stroke="#319534" stroke-width="1.51"/><path d="M214,906L374,905L313,716Z" fill="#56a627" stroke="#56a627" stroke-width="1.51"/><path d="M482,1354L485,1192L238,1343Z" fill="#75cb57" stroke="#75cb57" stroke-width="1.51"/><path d="M371,1047L485,1192L531,1007Z" fill="#6fc245" stroke="#6fc245" stroke-width="1.51"/><path d="M1382,1368L1547,1195L1355,1202Z" fill="#369b3b" stroke="#369b3b" stroke-width="1.51"/><path d="M1650,-139L1540,-32L1598,40Z" fill="#4d9f2d" stroke="#4d9f2d" stroke-width="1.51"/><path d="M1650,-139L1598,40L1759,-139Z" fill="#4b9e30" stroke="#4b9e30" stroke-width="1.51"/><path d="M778,-289L559,-264L546,-128Z" fill="#6fb631" stroke="#6fb631" stroke-width="1.51"/><path d="M1587,-173L1442,-277L1540,-32Z" fill="#3c8e21" stroke="#3c8e21" stroke-width="1.51"/><path d="M203,1119L485,1192L371,1047Z" fill="#68bc44" stroke="#68bc44" stroke-width="1.51"/><path d="M148,798L214,906L313,716Z" fill="#50a122" stroke="#50a122" stroke-width="1.51"/><path d="M1587,-173L1783,-167L1442,-277Z" fill="#398c25" stroke="#398c25" stroke-width="1.51"/><path d="M1759,-139L1598,40L1753,130Z" fill="#57aa37" stroke="#57aa37" stroke-width="1.51"/><path d="M239,493L118,638L313,716Z" fill="#68b52e" stroke="#68b52e" stroke-width="1.51"/><path d="M96,485L118,638L239,493Z" fill="#6bb730" stroke="#6bb730" stroke-width="1.51"/><path d="M1974,593L1940,321L1819,557Z" fill="#5eb845" stroke="#5eb845" stroke-width="1.51"/><path d="M1866,1036L1710,890L1659,1002Z" fill="#339736" stroke="#339736" stroke-width="1.51"/><path d="M84,409L239,493L276,411Z" fill="#7cc637" stroke="#7cc637" stroke-width="1.51"/><path d="M386,-24L245,13L277,197Z" fill="#83ca3b" stroke="#83ca3b" stroke-width="1.51"/><path d="M285,-83L245,13L386,-24Z" fill="#78bf35" stroke="#78bf35" stroke-width="1.51"/><path d="M758,1309L628,1322L872,1333Z" fill="#71ca57" stroke="#71ca57" stroke-width="1.51"/><path d="M485,1192L628,1322L622,1205Z" fill="#7cd257" stroke="#7cd257" stroke-width="1.51"/><path d="M118,638L148,798L313,716Z" fill="#59a726" stroke="#59a726" stroke-width="1.51"/><path d="M84,409L276,411L58,273Z" fill="#80c93a" stroke="#80c93a" stroke-width="1.51"/><path d="M327,-236L386,-24L546,-128Z" fill="#76bc35" stroke="#76bc35" stroke-width="1.51"/><path d="M-85,583L22,728L118,638Z" fill="#53a023" stroke="#53a023" stroke-width="1.51"/><path d="M58,273L276,411L277,197Z" fill="#8ed641" stroke="#8ed641" stroke-width="1.51"/><path d="M1844,279L2013,207L1753,130Z" fill="#74c94e" stroke="#74c94e" stroke-width="1.51"/><path d="M1974,593L1819,557L1839,650Z" fill="#4faa3d" stroke="#4faa3d" stroke-width="1.51"/><path d="M1182,1323L1382,1368L1355,1202Z" fill="#3c9f3e" stroke="#3c9f3e" stroke-width="1.51"/><path d="M872,1333L1382,1368L1057,1318Z" fill="#52b04a" stroke="#52b04a" stroke-width="1.51"/><path d="M482,1354L1382,1368L872,1333Z" fill="#63c053" stroke="#63c053" stroke-width="1.51"/><path d="M2010,633L1974,593L1839,650Z" fill="#4daa3f" stroke="#4daa3f" stroke-width="1.51"/><path d="M1613,1119L1774,1098L1659,1002Z" fill="#359a3b" stroke="#359a3b" stroke-width="1.51"/><path d="M1861,807L2010,633L1839,650Z" fill="#43a139" stroke="#43a139" stroke-width="1.51"/><path d="M1650,1302L1774,1098L1613,1119Z" fill="#3aa043" stroke="#3aa043" stroke-width="1.51"/><path d="M1650,1302L1613,1119L1547,1195Z" fill="#399f41" stroke="#399f41" stroke-width="1.51"/><path d="M-85,583L118,638L96,485Z" fill="#5faa29" stroke="#5faa29" stroke-width="1.51"/><path d="M13,139L58,273L277,197Z" fill="#85cc3c" stroke="#85cc3c" stroke-width="1.51"/><path d="M115,16L277,197L245,13Z" fill="#7dc438" stroke="#7dc438" stroke-width="1.51"/><path d="M1650,-139L1783,-167L1587,-173Z" fill="#41942b" stroke="#41942b" stroke-width="1.51"/><path d="M1783,-167L1759,-139L1917,-22Z" fill="#4ca038" stroke="#4ca038" stroke-width="1.51"/><path d="M285,-83L115,16L245,13Z" fill="#72b833" stroke="#72b833" stroke-width="1.51"/><path d="M381,-294L327,-236L546,-128Z" fill="#6bb12f" stroke="#6bb12f" stroke-width="1.51"/><path d="M628,1322L482,1354L872,1333Z" fill="#7ad25c" stroke="#7ad25c" stroke-width="1.51"/><path d="M485,1192L482,1354L628,1322Z" fill="#7fd65c" stroke="#7fd65c" stroke-width="1.51"/><path d="M203,1119L371,1047L282,966Z" fill="#5eb13a" stroke="#5eb13a" stroke-width="1.51"/><path d="M203,1119L282,966L138,1040Z" fill="#58ab37" stroke="#58ab37" stroke-width="1.51"/><path d="M1990,822L2010,633L1861,807Z" fill="#3c9d38" stroke="#3c9d38" stroke-width="1.51"/><path d="M2145,327L2069,241L1940,321Z" fill="#7cd35a" stroke="#7cd35a" stroke-width="1.51"/><path d="M1774,1098L1866,1036L1659,1002Z" fill="#379c3d" stroke="#379c3d" stroke-width="1.51"/><path d="M1946,1062L1866,1036L1774,1098Z" fill="#3ba145" stroke="#3ba145" stroke-width="1.51"/><path d="M873,-288L381,-294L778,-289Z" fill="#63aa2b" stroke="#63aa2b" stroke-width="1.51"/><path d="M778,-289L381,-294L559,-264Z" fill="#6cb330" stroke="#6cb330" stroke-width="1.51"/><path d="M559,-264L381,-294L546,-128Z" fill="#70b631" stroke="#70b631" stroke-width="1.51"/><path d="M1382,1368L1547,1358L1547,1195Z" fill="#3aa044" stroke="#3aa044" stroke-width="1.51"/><path d="M26,992L138,1040L214,906Z" fill="#4ea02e" stroke="#4ea02e" stroke-width="1.51"/><path d="M118,638L22,728L148,798Z" fill="#509f22" stroke="#509f22" stroke-width="1.51"/><path d="M-85,583L96,485L-130,526Z" fill="#5ca828" stroke="#5ca828" stroke-width="1.51"/><path d="M69,-134L115,16L285,-83Z" fill="#67ad2d" stroke="#67ad2d" stroke-width="1.51"/><path d="M1759,-139L1783,-167L1650,-139Z" fill="#449730" stroke="#449730" stroke-width="1.51"/><path d="M1917,-22L1759,-139L1753,130Z" fill="#58ab3d" stroke="#58ab3d" stroke-width="1.51"/><path d="M138,1040L282,966L214,906Z" fill="#55a730" stroke="#55a730" stroke-width="1.51"/><path d="M1547,1358L1650,1302L1547,1195Z" fill="#3ca347" stroke="#3ca347" stroke-width="1.51"/><path d="M26,992L214,906L148,798Z" fill="#4a9c25" stroke="#4a9c25" stroke-width="1.51"/><path d="M1866,1036L1990,822L1861,807Z" fill="#349838" stroke="#349838" stroke-width="1.51"/><path d="M1940,321L2013,207L1844,279Z" fill="#7bd154" stroke="#7bd154" stroke-width="1.51"/><path d="M2069,241L2013,207L1940,321Z" fill="#7fd55a" stroke="#7fd55a" stroke-width="1.51"/><path d="M1989,21L1917,-22L1753,130Z" fill="#61b545" stroke="#61b545" stroke-width="1.51"/><path d="M-130,526L96,485L-131,410Z" fill="#63ad2b" stroke="#63ad2b" stroke-width="1.51"/><path d="M115,16L13,139L277,197Z" fill="#7cc337" stroke="#7cc337" stroke-width="1.51"/><path d="M138,1040L172,1154L203,1119Z" fill="#58ab3b" stroke="#58ab3b" stroke-width="1.51"/><path d="M203,1119L238,1343L485,1192Z" fill="#69be4c" stroke="#69be4c" stroke-width="1.51"/><path d="M20,1123L172,1154L138,1040Z" fill="#53a639" stroke="#53a639" stroke-width="1.51"/><path d="M1917,-22L1930,-256L1783,-167Z" fill="#499d39" stroke="#499d39" stroke-width="1.51"/><path d="M2013,207L1989,21L1753,130Z" fill="#6bc04b" stroke="#6bc04b" stroke-width="1.51"/><path d="M2013,207L2150,142L1989,21Z" fill="#70c654" stroke="#70c654" stroke-width="1.51"/><path d="M2130,523L1940,321L1974,593Z" fill="#63bd4d" stroke="#63bd4d" stroke-width="1.51"/><path d="M2130,523L1974,593L2010,633Z" fill="#56b348" stroke="#56b348" stroke-width="1.51"/><path d="M1866,1036L1946,1062L1990,822Z" fill="#399f41" stroke="#399f41" stroke-width="1.51"/><path d="M1995,1201L1946,1062L1774,1098Z" fill="#3fa64c" stroke="#3fa64c" stroke-width="1.51"/><path d="M-98,859L26,992L148,798Z" fill="#409220" stroke="#409220" stroke-width="1.51"/><path d="M-93,345L84,409L58,273Z" fill="#79c136" stroke="#79c136" stroke-width="1.51"/><path d="M-98,859L148,798L22,728Z" fill="#41911a" stroke="#41911a" stroke-width="1.51"/><path d="M-98,221L-93,345L58,273Z" fill="#7cc237" stroke="#7cc237" stroke-width="1.51"/><path d="M2208,677L2130,523L2010,633Z" fill="#55b34b" stroke="#55b34b" stroke-width="1.51"/><path d="M2174,745L2010,633L1990,822Z" fill="#43a440" stroke="#43a440" stroke-width="1.51"/><path d="M1547,1358L1758,1331L1650,1302Z" fill="#40a84f" stroke="#40a84f" stroke-width="1.51"/><path d="M1650,1302L1758,1331L1774,1098Z" fill="#3fa64c" stroke="#3fa64c" stroke-width="1.51"/><path d="M115,16L-131,56L13,139Z" fill="#6bb12f" stroke="#6bb12f" stroke-width="1.51"/><path d="M13,139L-98,221L58,273Z" fill="#7bc237" stroke="#7bc237" stroke-width="1.51"/><path d="M327,-236L148,-227L285,-83Z" fill="#62a82b" stroke="#62a82b" stroke-width="1.51"/><path d="M381,-294L148,-227L327,-236Z" fill="#5ca227" stroke="#5ca227" stroke-width="1.51"/><path d="M148,-227L69,-134L285,-83Z" fill="#5fa429" stroke="#5fa429" stroke-width="1.51"/><path d="M-220,635L-98,859L22,728Z" fill="#3e8d19" stroke="#3e8d19" stroke-width="1.51"/><path d="M-131,410L96,485L84,409Z" fill="#6db730" stroke="#6db730" stroke-width="1.51"/><path d="M-93,345L-131,410L84,409Z" fill="#6eb631" stroke="#6eb631" stroke-width="1.51"/><path d="M-143,194L-98,221L13,139Z" fill="#73b933" stroke="#73b933" stroke-width="1.51"/><path d="M-143,194L-131,410L-93,345Z" fill="#70b832" stroke="#70b832" stroke-width="1.51"/><path d="M95,1359L238,1343L172,1154Z" fill="#60b64c" stroke="#60b64c" stroke-width="1.51"/><path d="M172,1154L238,1343L203,1119Z" fill="#60b446" stroke="#60b446" stroke-width="1.51"/><path d="M2069,241L2150,142L2013,207Z" fill="#7ad15a" stroke="#7ad15a" stroke-width="1.51"/><path d="M2130,523L2145,327L1940,321Z" fill="#71c955" stroke="#71c955" stroke-width="1.51"/><path d="M2173,980L2085,912L2114,1109Z" fill="#40a84e" stroke="#40a84e" stroke-width="1.51"/><path d="M1946,1062L2085,912L1990,822Z" fill="#399f42" stroke="#399f42" stroke-width="1.51"/><path d="M-132,888L-98,859L-220,635Z" fill="#328413" stroke="#328413" stroke-width="1.51"/><path d="M26,992L20,1123L138,1040Z" fill="#4c9f32" stroke="#4c9f32" stroke-width="1.51"/><path d="M-137,981L20,1123L26,992Z" fill="#43962d" stroke="#43962d" stroke-width="1.51"/><path d="M2059,-73L1930,-256L1917,-22Z" fill="#50a540" stroke="#50a540" stroke-width="1.51"/><path d="M1783,-167L1930,-256L1442,-277Z" fill="#398d2b" stroke="#398d2b" stroke-width="1.51"/><path d="M2059,-73L1917,-22L1989,21Z" fill="#5cb147" stroke="#5cb147" stroke-width="1.51"/><path d="M2085,912L2174,745L1990,822Z" fill="#379c3d" stroke="#379c3d" stroke-width="1.51"/><path d="M2130,523L2297,416L2145,327Z" fill="#71cb5b" stroke="#71cb5b" stroke-width="1.51"/><path d="M2233,185L2150,142L2069,241Z" fill="#7cd35e" stroke="#7cd35e" stroke-width="1.51"/><path d="M2233,185L2069,241L2145,327Z" fill="#83db62" stroke="#83db62" stroke-width="1.51"/><path d="M2150,142L2059,-73L1989,21Z" fill="#65bb50" stroke="#65bb50" stroke-width="1.51"/><path d="M-98,221L-143,194L-93,345Z" fill="#78bf35" stroke="#78bf35" stroke-width="1.51"/><path d="M-131,410L-220,635L-130,526Z" fill="#549e24" stroke="#549e24" stroke-width="1.51"/><path d="M-131,56L-143,194L13,139Z" fill="#6bb12f" stroke="#6bb12f" stroke-width="1.51"/><path d="M-98,859L-137,981L26,992Z" fill="#3c8e22" stroke="#3c8e22" stroke-width="1.51"/><path d="M-220,635L22,728L-85,583Z" fill="#4a971e" stroke="#4a971e" stroke-width="1.51"/><path d="M-220,635L-85,583L-130,526Z" fill="#4e9a20" stroke="#4e9a20" stroke-width="1.51"/><path d="M1758,1331L1995,1201L1774,1098Z" fill="#41a950" stroke="#41a950" stroke-width="1.51"/><path d="M2085,912L2308,890L2174,745Z" fill="#3ba145" stroke="#3ba145" stroke-width="1.51"/><path d="M2174,745L2208,677L2010,633Z" fill="#4cac47" stroke="#4cac47" stroke-width="1.51"/><path d="M2303,592L2208,677L2308,890Z" fill="#48ab49" stroke="#48ab49" stroke-width="1.51"/><path d="M-89,-140L115,16L69,-134Z" fill="#5ba027" stroke="#5ba027" stroke-width="1.51"/><path d="M-89,-140L-131,56L115,16Z" fill="#5da328" stroke="#5da328" stroke-width="1.51"/><path d="M-204,-95L-220,635L-143,194Z" fill="#71b732" stroke="#71b732" stroke-width="1.51"/><path d="M-143,194L-220,635L-131,410Z" fill="#61aa2a" stroke="#61aa2a" stroke-width="1.51"/><path d="M-3,1303L95,1359L172,1154Z" fill="#59ae47" stroke="#59ae47" stroke-width="1.51"/><path d="M-132,888L-137,981L-98,859Z" fill="#35881d" stroke="#35881d" stroke-width="1.51"/><path d="M-254,1177L-137,981L-132,888Z" fill="#368926" stroke="#368926" stroke-width="1.51"/><path d="M-3,1303L172,1154L20,1123Z" fill="#53a83f" stroke="#53a83f" stroke-width="1.51"/><path d="M238,1343L95,1359L482,1354Z" fill="#6cc356" stroke="#6cc356" stroke-width="1.51"/><path d="M482,1354L95,1359L1382,1368Z" fill="#7bd45f" stroke="#7bd45f" stroke-width="1.51"/><path d="M2114,1109L2085,912L1946,1062Z" fill="#40a64d" stroke="#40a64d" stroke-width="1.51"/><path d="M1995,1201L2114,1109L1946,1062Z" fill="#43ab53" stroke="#43ab53" stroke-width="1.51"/><path d="M2150,142L2207,93L2059,-73Z" fill="#6ac155" stroke="#6ac155" stroke-width="1.51"/><path d="M2297,416L2233,185L2145,327Z" fill="#7fd762" stroke="#7fd762" stroke-width="1.51"/><path d="M148,-227L2,-260L69,-134Z" fill="#519622" stroke="#519622" stroke-width="1.51"/><path d="M381,-294L2,-260L148,-227Z" fill="#529822" stroke="#529822" stroke-width="1.51"/><path d="M2233,185L2207,93L2150,142Z" fill="#77ce5e" stroke="#77ce5e" stroke-width="1.51"/><path d="M2059,-73L2059,-234L1930,-256Z" fill="#499e3f" stroke="#499e3f" stroke-width="1.51"/><path d="M2,-260L-89,-140L69,-134Z" fill="#4e9220" stroke="#4e9220" stroke-width="1.51"/><path d="M1995,1201L2071,1260L2114,1109Z" fill="#47b05b" stroke="#47b05b" stroke-width="1.51"/><path d="M1758,1331L2019,1275L1995,1201Z" fill="#46b05a" stroke="#46b05a" stroke-width="1.51"/><path d="M2248,-231L2059,-234L2059,-73Z" fill="#4da446" stroke="#4da446" stroke-width="1.51"/><path d="M2303,592L2130,523L2208,677Z" fill="#5ab850" stroke="#5ab850" stroke-width="1.51"/><path d="M2303,592L2297,416L2130,523Z" fill="#65c155" stroke="#65c155" stroke-width="1.51"/><path d="M2308,890L2208,677L2174,745Z" fill="#42a546" stroke="#42a546" stroke-width="1.51"/><path d="M-254,1177L-3,1303L20,1123Z" fill="#479c3b" stroke="#479c3b" stroke-width="1.51"/><path d="M2019,1275L2071,1260L1995,1201Z" fill="#49b25e" stroke="#49b25e" stroke-width="1.51"/><path d="M2322,958L2308,890L2173,980Z" fill="#40a74d" stroke="#40a74d" stroke-width="1.51"/><path d="M2297,416L2233,-31L2233,185Z" fill="#7dd461" stroke="#7dd461" stroke-width="1.51"/><path d="M2233,185L2233,-31L2207,93Z" fill="#70c75a" stroke="#70c75a" stroke-width="1.51"/><path d="M2207,93L2233,-31L2059,-73Z" fill="#64bb53" stroke="#64bb53" stroke-width="1.51"/><path d="M-255,-290L-204,-95L-89,-140Z" fill="#408519" stroke="#408519" stroke-width="1.51"/><path d="M-89,-140L-204,-95L-131,56Z" fill="#509621" stroke="#509621" stroke-width="1.51"/><path d="M-131,56L-204,-95L-143,194Z" fill="#5ca127" stroke="#5ca127" stroke-width="1.51"/><path d="M2211,1127L2173,980L2114,1109Z" fill="#45ae57" stroke="#45ae57" stroke-width="1.51"/><path d="M2173,980L2308,890L2085,912Z" fill="#3fa64c" stroke="#3fa64c" stroke-width="1.51"/><path d="M2071,1260L2211,1127L2114,1109Z" fill="#48b25d" stroke="#48b25d" stroke-width="1.51"/><path d="M2308,890L2322,958L2303,592Z" fill="#3ba143" stroke="#3ba143" stroke-width="1.51"/><path d="M2303,592L2322,958L2297,416Z" fill="#52b24d" stroke="#52b24d" stroke-width="1.51"/><path d="M2211,1127L2322,958L2173,980Z" fill="#43ac54" stroke="#43ac54" stroke-width="1.51"/><path d="M2233,-31L2248,-231L2059,-73Z" fill="#57ae4e" stroke="#57ae4e" stroke-width="1.51"/><path d="M2059,-234L2248,-231L1930,-256Z" fill="#459b40" stroke="#459b40" stroke-width="1.51"/><path d="M2297,416L2248,-231L2233,-31Z" fill="#6cc358" stroke="#6cc358" stroke-width="1.51"/><path d="M-137,981L-254,1177L20,1123Z" fill="#3e922f" stroke="#3e922f" stroke-width="1.51"/><path d="M-3,1303L-153,1357L95,1359Z" fill="#53a949" stroke="#53a949" stroke-width="1.51"/><path d="M-220,635L-254,1177L-132,888Z" fill="#2d8119" stroke="#2d8119" stroke-width="1.51"/><path d="M-255,-290L-254,1177L-220,635Z" fill="#4f9a21" stroke="#4f9a21" stroke-width="1.51"/><path d="M-254,1177L-153,1357L-3,1303Z" fill="#469c3f" stroke="#469c3f" stroke-width="1.51"/><path d="M2211,1127L2239,1343L2322,958Z" fill="#49b35e" stroke="#49b35e" stroke-width="1.51"/><path d="M2071,1260L2239,1343L2211,1127Z" fill="#4db966" stroke="#4db966" stroke-width="1.51"/><path d="M2019,1275L2239,1343L2071,1260Z" fill="#4db967" stroke="#4db967" stroke-width="1.51"/><path d="M1758,1331L2239,1343L2019,1275Z" fill="#4bb662" stroke="#4bb662" stroke-width="1.51"/><path d="M1547,1358L2239,1343L1758,1331Z" fill="#48b15c" stroke="#48b15c" stroke-width="1.51"/><path d="M1382,1368L2239,1343L1547,1358Z" fill="#44ac55" stroke="#44ac55" stroke-width="1.51"/><path d="M-204,-95L-255,-290L-220,635Z" fill="#5aa027" stroke="#5aa027" stroke-width="1.51"/><path d="M2,-260L-255,-290L-89,-140Z" fill="#3e8419" stroke="#3e8419" stroke-width="1.51"/><path d="M381,-294L-255,-290L2,-260Z" fill="#468a1c" stroke="#468a1c" stroke-width="1.51"/></svg>